<svg width="97" height="14" viewBox="0 0 97 14" fill="none" xmlns="http://www.w3.org/2000/svg">
<path opacity="0.2" d="M9.367 3.769C9.095 2.426 7.99 0.691999 5.151 0.691999C2.907 0.691999 1.054 2.358 1.054 4.381C1.054 6.183 2.278 7.39 4.114 7.764L5.814 8.121C6.851 8.342 7.429 8.971 7.429 9.753C7.429 10.688 6.681 11.419 5.236 11.419C3.502 11.419 2.601 10.263 2.482 9.005L0.578 9.549C0.765 11.283 2.176 13.255 5.236 13.255C7.99 13.255 9.503 11.47 9.503 9.6C9.503 7.9 8.364 6.557 6.239 6.132L4.505 5.775C3.57 5.571 3.094 4.993 3.094 4.228C3.094 3.31 3.944 2.494 5.168 2.494C6.783 2.494 7.412 3.599 7.531 4.347L9.367 3.769ZM12.7125 7.951C12.7805 7.067 13.4945 6.115 14.7355 6.115C16.0955 6.115 16.7415 6.982 16.7755 7.951H12.7125ZM16.9965 10.11C16.7245 10.926 16.1125 11.555 14.9225 11.555C13.6985 11.555 12.7125 10.654 12.6615 9.396H18.7135C18.7305 9.362 18.7645 9.09 18.7645 8.767C18.7645 6.149 17.2685 4.466 14.7185 4.466C12.6275 4.466 10.6895 6.2 10.6895 8.818C10.6895 11.623 12.6785 13.255 14.9225 13.255C16.9115 13.255 18.2205 12.082 18.6625 10.637L16.9965 10.11ZM20.139 10.756C20.139 12.065 21.21 13.255 22.944 13.255C24.287 13.255 25.103 12.575 25.494 11.946C25.494 12.609 25.562 12.949 25.579 13H27.415C27.398 12.915 27.313 12.422 27.313 11.674V7.56C27.313 5.911 26.344 4.466 23.794 4.466C21.754 4.466 20.462 5.741 20.309 7.169L22.111 7.577C22.196 6.744 22.774 6.081 23.811 6.081C24.899 6.081 25.375 6.642 25.375 7.339C25.375 7.628 25.239 7.866 24.763 7.934L22.638 8.257C21.227 8.461 20.139 9.277 20.139 10.756ZM23.318 11.708C22.536 11.708 22.111 11.198 22.111 10.637C22.111 9.957 22.604 9.617 23.216 9.515L25.375 9.192V9.566C25.375 11.181 24.423 11.708 23.318 11.708ZM34.5419 4.67C34.4569 4.653 34.2529 4.619 34.0149 4.619C32.9269 4.619 32.0089 5.146 31.6179 6.047V4.721H29.6969V13H31.6689V9.056C31.6689 7.509 32.3659 6.625 33.8959 6.625C34.0999 6.625 34.3209 6.642 34.5419 6.676V4.67ZM39.7091 6.285C40.9671 6.285 41.5281 7.101 41.7151 7.832L43.4831 7.186C43.1431 5.86 41.9191 4.466 39.6921 4.466C37.3121 4.466 35.4591 6.302 35.4591 8.852C35.4591 11.368 37.3121 13.255 39.7431 13.255C41.9191 13.255 43.1601 11.844 43.5511 10.552L41.8171 9.923C41.6301 10.552 41.0351 11.453 39.7431 11.453C38.5021 11.453 37.4311 10.518 37.4311 8.852C37.4311 7.186 38.5021 6.285 39.7091 6.285ZM47.2743 8.138C47.3083 7.084 47.9033 6.268 48.9913 6.268C50.2323 6.268 50.6913 7.084 50.6913 8.104V13H52.6633V7.764C52.6633 5.945 51.6773 4.483 49.6373 4.483C48.7703 4.483 47.8353 4.789 47.2743 5.52V0.691999H45.3023V13H47.2743V8.138ZM58.5499 10.756C58.6519 11.691 59.5699 13.255 61.9669 13.255C64.0749 13.255 65.0949 11.861 65.0949 10.603C65.0949 9.379 64.2789 8.427 62.7149 8.087L61.4569 7.832C60.9469 7.73 60.6239 7.407 60.6239 6.965C60.6239 6.455 61.1169 6.013 61.8139 6.013C62.9189 6.013 63.2759 6.778 63.3439 7.254L65.0099 6.778C64.8739 5.962 64.1259 4.466 61.8139 4.466C60.0969 4.466 58.7709 5.69 58.7709 7.135C58.7709 8.274 59.5359 9.226 60.9979 9.549L62.2219 9.821C62.8849 9.957 63.1909 10.297 63.1909 10.739C63.1909 11.249 62.7659 11.691 61.9499 11.691C60.8959 11.691 60.3349 11.028 60.2669 10.28L58.5499 10.756ZM69.5494 2.188H67.7644V3.429C67.7644 4.16 67.3734 4.721 66.4894 4.721H66.0644V6.472H67.5944V10.637C67.5944 12.184 68.5464 13.102 70.0764 13.102C70.7904 13.102 71.1644 12.966 71.2834 12.915V11.283C71.1984 11.3 70.8754 11.351 70.6034 11.351C69.8724 11.351 69.5494 11.045 69.5494 10.314V6.472H71.2664V4.721H69.5494V2.188ZM76.8476 11.487C75.6406 11.487 74.5356 10.569 74.5356 8.852C74.5356 7.135 75.6406 6.251 76.8476 6.251C78.0716 6.251 79.1596 7.135 79.1596 8.852C79.1596 10.586 78.0716 11.487 76.8476 11.487ZM76.8476 4.466C74.3826 4.466 72.5636 6.319 72.5636 8.852C72.5636 11.402 74.3826 13.255 76.8476 13.255C79.3296 13.255 81.1486 11.402 81.1486 8.852C81.1486 6.319 79.3296 4.466 76.8476 4.466ZM87.8993 4.67C87.8143 4.653 87.6103 4.619 87.3723 4.619C86.2843 4.619 85.3663 5.146 84.9753 6.047V4.721H83.0543V13H85.0263V9.056C85.0263 7.509 85.7233 6.625 87.2533 6.625C87.4573 6.625 87.6783 6.642 87.8993 6.676V4.67ZM90.8395 7.951C90.9075 7.067 91.6215 6.115 92.8625 6.115C94.2225 6.115 94.8685 6.982 94.9025 7.951H90.8395ZM95.1235 10.11C94.8515 10.926 94.2395 11.555 93.0495 11.555C91.8255 11.555 90.8395 10.654 90.7885 9.396H96.8405C96.8575 9.362 96.8915 9.09 96.8915 8.767C96.8915 6.149 95.3955 4.466 92.8455 4.466C90.7545 4.466 88.8165 6.2 88.8165 8.818C88.8165 11.623 90.8055 13.255 93.0495 13.255C95.0385 13.255 96.3475 12.082 96.7895 10.637L95.1235 10.11Z" fill="black"/>
</svg>
